<?xml version="1.0" encoding="utf-8"?>
<!-- Generator: Adobe Illustrator 16.0.3, SVG Export Plug-In . SVG Version: 6.00 Build 0)  -->
<!DOCTYPE svg PUBLIC "-//W3C//DTD SVG 1.1//EN" "http://www.w3.org/Graphics/SVG/1.1/DTD/svg11.dtd">
<svg version="1.1" xmlns="http://www.w3.org/2000/svg" xmlns:xlink="http://www.w3.org/1999/xlink" x="0px" y="0px"
	 width="13.568px" height="12.596px" viewBox="0 0 13.568 12.596" enable-background="new 0 0 13.568 12.596" xml:space="preserve">
<g id="Shape_1_1_" enable-background="new    ">
	<g id="Shape_1">
		<g>
			<path fill="#417BA0" d="M12.656,1.276C11.485-0.093,9.461-0.301,8.04,0.766c-0.058,0.043-6.69,5.71-6.746,5.758
				C-0.131,7.741-0.298,9.885,0.92,11.31c1.219,1.426,3.361,1.593,4.787,0.375c0.06-0.052,6.692-5.726,6.748-5.779
				C13.719,4.666,13.824,2.643,12.656,1.276z M11.764,5.407C11.717,5.454,8.73,8.011,8.679,8.055L5.352,4.162
				c0.047-0.04,3.032-2.589,3.081-2.625c0.511-0.378,1.123-0.539,1.72-0.492c0.654,0.052,1.286,0.351,1.746,0.889
				s0.657,1.21,0.606,1.863C12.458,4.389,12.209,4.963,11.764,5.407z"/>
		</g>
	</g>
</g>
<g id="Rounded_Rectangle_1_1_" enable-background="new    ">
</g>
</svg>
