<?xml version="1.0" encoding="utf-8"?>
<!-- Generator: Adobe Illustrator 16.0.3, SVG Export Plug-In . SVG Version: 6.00 Build 0)  -->
<!DOCTYPE svg PUBLIC "-//W3C//DTD SVG 1.1//EN" "http://www.w3.org/Graphics/SVG/1.1/DTD/svg11.dtd">
<svg version="1.1" id="Rounded_Rectangle_1_1_" xmlns="http://www.w3.org/2000/svg" xmlns:xlink="http://www.w3.org/1999/xlink"
	 x="0px" y="0px" width="15.604px" height="15.569px" viewBox="0 0 15.604 15.569" enable-background="new 0 0 15.604 15.569"
	 xml:space="preserve">
<g id="Rounded_Rectangle_1">
	<g>
		<path fill-rule="evenodd" clip-rule="evenodd" fill="#F57F20" d="M14.218,0.364c-1.72-0.581-2.215-0.152-2.215-0.152l-0.107,0.783
			c0,0,1.218,0.146,2.093,0.65c0.834,0.481,1.286,1.436,1.286,1.436l0.269-1.237C15.543,1.843,15.776,0.89,14.218,0.364z
			 M11.384,2.137C9.833,1.849,9.833,3.003,9.833,3.003L7.951,9.22L4.416,9.833v2.561l1.298,1.154l6.824-0.863L13,10.771l1.053-4.666
			c0,0,0.252-0.613,0.325-0.901c0.072-0.289-0.145-1.443-0.697-1.957S12.935,2.426,11.384,2.137z M3.021,11.938
			c0-0.193-0.157-0.351-0.351-0.351H0.399c-0.193,0-0.35,0.157-0.35,0.351s0.157,0.351,0.35,0.351h2.271
			C2.865,12.289,3.021,12.131,3.021,11.938z M1.211,9.13l1.366,1.337c0.187,0.051,0.379-0.061,0.429-0.247
			c0.05-0.188-0.061-0.379-0.248-0.43L1.394,8.454c-0.187-0.05-0.379,0.061-0.43,0.248C0.914,8.888,1.024,9.081,1.211,9.13z
			 M2.809,13.286l-1.63,1.535c-0.187,0.051-0.298,0.242-0.248,0.43c0.05,0.187,0.242,0.298,0.429,0.247l1.63-1.535
			c0.187-0.05,0.298-0.242,0.248-0.429C3.188,13.346,2.996,13.236,2.809,13.286z"/>
	</g>
</g>
</svg>
