<?xml version="1.0" encoding="utf-8"?>
<!-- Generator: Adobe Illustrator 16.0.3, SVG Export Plug-In . SVG Version: 6.00 Build 0)  -->
<!DOCTYPE svg PUBLIC "-//W3C//DTD SVG 1.1//EN" "http://www.w3.org/Graphics/SVG/1.1/DTD/svg11.dtd">
<svg version="1.1" xmlns="http://www.w3.org/2000/svg" xmlns:xlink="http://www.w3.org/1999/xlink" x="0px" y="0px"
	 width="13.475px" height="13.04px" viewBox="0 0 13.475 13.04" enable-background="new 0 0 13.475 13.04" xml:space="preserve">
<g id="Rectangle_1_1_" enable-background="new    ">
	<g id="Rectangle_1">
		<g>
			<path fill-rule="evenodd" clip-rule="evenodd" fill="#D0241F" d="M11.557,2.516l1.012,1.012l0.839-0.87l-2.622-2.621L9.947,0.906
				l0.943,0.944c-0.051,0.135-0.119,0.273-0.229,0.383L8.789,4.137L6.773,2.122L6.231,2.726l0.872,0.892L2.838,7.884
				C2.582,8.14,2.439,8.475,2.419,8.82c0,0,0.094,0.413,0.354,0.865L0.57,11.887c0,0-0.581,0.935-0.453,1.062
				c0.139,0.139,1.173-0.372,1.173-0.372l2.13-2.13c0.521,0.387,1.228,0.571,1.228,0.571c0.354-0.02,0.684-0.166,0.936-0.419
				l4.234-4.234l0.955,0.934l0.542-0.604L9.3,4.649l1.873-1.904C11.283,2.634,11.422,2.567,11.557,2.516z M4.953,9.968
				c-0.106,0.106-0.245,0.159-0.384,0.159c-0.081,0-0.381-0.236-0.457-0.272c0,0-0.165-0.11-0.276-0.223
				C3.697,9.494,3.614,9.356,3.614,9.356C3.516,9.154,3.3,8.684,3.469,8.515l4.265-4.266l1.454,1.485L4.953,9.968z"/>
		</g>
	</g>
</g>
<g id="Rounded_Rectangle_1_1_" enable-background="new    ">
</g>
</svg>
