<?xml version="1.0" encoding="utf-8"?>
<!-- Generator: Adobe Illustrator 16.0.3, SVG Export Plug-In . SVG Version: 6.00 Build 0)  -->
<!DOCTYPE svg PUBLIC "-//W3C//DTD SVG 1.1//EN" "http://www.w3.org/Graphics/SVG/1.1/DTD/svg11.dtd">
<svg version="1.1" xmlns="http://www.w3.org/2000/svg" xmlns:xlink="http://www.w3.org/1999/xlink" x="0px" y="0px"
	 width="12.238px" height="12.324px" viewBox="0 0 12.238 12.324" enable-background="new 0 0 12.238 12.324" xml:space="preserve">
<g id="Shape_1_1_" enable-background="new    ">
	<g id="Shape_1">
		<g>
			<path fill="#79C142" d="M11.886,1.154l-0.737-0.737c-0.47-0.469-1.231-0.469-1.701,0.001L7.736,2.129L6.909,1.302L5.273,2.938
				L5.955,3.62L1.284,8.292c-0.306,0.306-0.478,0.707-0.5,1.12L0.511,9.684c-0.581,0.582-0.581,1.527,0,2.108
				c0.281,0.281,0.656,0.437,1.054,0.437c0.398,0,0.772-0.155,1.054-0.437l0.271-0.271c0.424-0.023,0.818-0.199,1.121-0.501
				l4.671-4.672L9.365,7.03l1.636-1.637l-0.827-0.826l1.711-1.712C12.355,2.386,12.355,1.624,11.886,1.154z M3.256,10.264
				c-0.127,0.127-0.293,0.19-0.46,0.19c-0.098,0-0.195-0.021-0.285-0.064l-0.647,0.646c-0.083,0.083-0.19,0.124-0.298,0.124
				c-0.108,0-0.216-0.041-0.299-0.124c-0.165-0.165-0.165-0.432,0-0.597l0.647-0.646c0,0,0,0,0-0.001
				C1.796,9.55,1.837,9.249,2.039,9.047L6.71,4.376l1.217,1.217L3.256,10.264z"/>
		</g>
	</g>
</g>
<g id="Rounded_Rectangle_1_1_" enable-background="new    ">
</g>
</svg>
