<?xml version="1.0" encoding="utf-8"?>
<!-- Generator: Adobe Illustrator 16.0.3, SVG Export Plug-In . SVG Version: 6.00 Build 0)  -->
<!DOCTYPE svg PUBLIC "-//W3C//DTD SVG 1.1//EN" "http://www.w3.org/Graphics/SVG/1.1/DTD/svg11.dtd">
<svg version="1.1" id="final_1_" xmlns="http://www.w3.org/2000/svg" xmlns:xlink="http://www.w3.org/1999/xlink" x="0px" y="0px"
	 width="14.769px" height="14.744px" viewBox="0 0 14.769 14.744" enable-background="new 0 0 14.769 14.744" xml:space="preserve">
<g id="svg_1_">
	<g id="search">
		<g>
			<path fill="#B2B2B2" d="M14.425,12.301l-0.088-0.089l-3.498-3.498c0.486-0.837,0.769-1.807,0.775-2.845
				c0.02-3.175-2.538-5.766-5.713-5.786H5.864c-3.157,0-5.728,2.55-5.748,5.713c-0.02,3.175,2.537,5.765,5.712,5.786h0.038
				c1.056,0,2.045-0.286,2.896-0.783l3.495,3.495l0,0l0.088,0.087c0.264,0.265,0.692,0.265,0.956,0l1.125-1.124
				C14.688,12.993,14.688,12.564,14.425,12.301z M8.884,8.87c-0.808,0.803-1.879,1.245-3.018,1.245H5.837
				c-2.361-0.015-4.27-1.949-4.255-4.31C1.597,3.459,3.518,1.55,5.864,1.55h0.028c1.145,0.008,2.217,0.46,3.021,1.274
				c0.805,0.813,1.243,1.893,1.236,3.037C10.142,6.999,9.693,8.069,8.884,8.87z"/>
		</g>
	</g>
</g>
</svg>
