<?xml version="1.0" encoding="utf-8"?>
<!-- Generator: Adobe Illustrator 16.0.3, SVG Export Plug-In . SVG Version: 6.00 Build 0)  -->
<!DOCTYPE svg PUBLIC "-//W3C//DTD SVG 1.1//EN" "http://www.w3.org/Graphics/SVG/1.1/DTD/svg11.dtd">
<svg version="1.1" id="search_1_" xmlns="http://www.w3.org/2000/svg" xmlns:xlink="http://www.w3.org/1999/xlink" x="0px" y="0px"
	 width="15.202px" height="15.201px" viewBox="0 0 15.202 15.201" enable-background="new 0 0 15.202 15.201" xml:space="preserve">
<g id="search">
	<g>
		<path fill="#CCCCCC" d="M14.997,12.843l-0.09-0.091l-3.611-3.619c0.501-0.866,0.793-1.87,0.8-2.943
			c0.021-3.286-2.62-5.967-5.899-5.987H6.157c-3.26,0-5.915,2.639-5.936,5.911c-0.021,3.285,2.62,5.966,5.899,5.986h0.039
			c1.09,0,2.111-0.296,2.99-0.81l3.609,3.615l0.09,0.091c0.273,0.273,0.715,0.272,0.988,0l1.161-1.163
			C15.27,13.56,15.27,13.116,14.997,12.843z M9.275,9.295c-0.834,0.831-1.94,1.288-3.116,1.288H6.13
			c-2.438-0.016-4.41-2.017-4.395-4.46C1.751,3.694,3.735,1.72,6.157,1.72h0.03c1.181,0.007,2.289,0.475,3.119,1.317
			s1.283,1.958,1.275,3.143C10.574,7.358,10.11,8.465,9.275,9.295z"/>
	</g>
</g>
</svg>
